<svg width="96" height="96" viewBox="0 0 96 96" xmlns="http://www.w3.org/2000/svg">
  <defs>
    <linearGradient id="appleBody" x1="0" y1="0" x2="1" y2="1">
      <stop offset="0%" stop-color="#ff6b6b" />
      <stop offset="100%" stop-color="#d7263d" />
    </linearGradient>
  </defs>
  <rect width="96" height="96" rx="22" fill="#ffffff" />
  <path d="M47 18c2 0 4 1 4 4v6h-6v-6c0-3 1-4 2-4z" fill="#6b4f3a"/>
  <path d="M52 18c6-2 11-1 15 3-5 2-10 2-15-3z" fill="#2fa84f"/>
  <path d="M48 30c13 0 24 10 24 23 0 14-10 25-24 25S24 67 24 53c0-13 11-23 24-23z" fill="url(#appleBody)"/>
  <circle cx="39" cy="45" r="4" fill="#ffd0d6" opacity=".8"/>
</svg>
